<svg width="675" height="577" viewBox="0 0 675 577" fill="none" xmlns="http://www.w3.org/2000/svg">
<path d="M319.932 399.31C319.932 446.362 338.623 491.487 371.894 524.758C405.164 558.028 450.289 576.72 497.341 576.72C544.393 576.72 589.518 558.028 622.788 524.758C656.059 491.487 674.75 446.362 674.75 399.31C674.75 352.258 656.059 307.134 622.788 273.863C589.518 240.592 544.393 221.901 497.341 221.901C450.289 221.901 405.164 240.592 371.894 273.863C338.623 307.134 319.932 352.258 319.932 399.31Z" fill="#FFCA5F"/>
<path d="M277.84 0.958862V40.515H119.616C88.1428 40.515 57.9591 53.0175 35.7044 75.2722C13.4498 97.5268 0.947266 127.711 0.947266 159.183V277.852C0.947266 303.825 6.06301 329.543 16.0024 353.539C25.9418 377.535 40.5103 399.338 58.8759 417.704C77.2415 436.07 99.0447 450.638 123.041 460.577C147.036 470.517 172.755 475.633 198.728 475.633H436.065C462.038 475.633 487.756 470.517 511.752 460.577C535.748 450.638 557.551 436.07 575.917 417.704C594.282 399.338 608.851 377.535 618.79 353.539C628.73 329.543 633.845 303.825 633.845 277.852V159.183C633.845 127.711 621.343 97.5268 599.088 75.2722C576.834 53.0175 546.65 40.515 515.177 40.515H356.953V0.958862H277.84ZM80.0595 159.183C80.0595 148.692 84.227 138.631 91.6452 131.213C99.0635 123.795 109.125 119.627 119.616 119.627H515.177C525.668 119.627 535.729 123.795 543.147 131.213C550.566 138.631 554.733 148.692 554.733 159.183V277.852C554.733 309.325 542.231 339.508 519.976 361.763C497.721 384.018 467.538 396.52 436.065 396.52H198.728C167.255 396.52 137.071 384.018 114.817 361.763C92.5621 339.508 80.0595 309.325 80.0595 277.852V159.183ZM218.506 317.408C234.242 317.408 249.334 311.157 260.462 300.029C271.589 288.902 277.84 273.81 277.84 258.074C277.84 242.337 271.589 227.245 260.462 216.118C249.334 204.991 234.242 198.74 218.506 198.74C202.77 198.74 187.678 204.991 176.55 216.118C165.423 227.245 159.172 242.337 159.172 258.074C159.172 273.81 165.423 288.902 176.55 300.029C187.678 311.157 202.77 317.408 218.506 317.408ZM416.287 317.408C432.023 317.408 447.115 311.157 458.242 300.029C469.37 288.902 475.621 273.81 475.621 258.074C475.621 242.337 469.37 227.245 458.242 216.118C447.115 204.991 432.023 198.74 416.287 198.74C400.55 198.74 385.458 204.991 374.331 216.118C363.204 227.245 356.953 242.337 356.953 258.074C356.953 273.81 363.204 288.902 374.331 300.029C385.458 311.157 400.55 317.408 416.287 317.408Z" fill="#1556F0"/>
<path d="M0.947266 63.8107C0.947265 69.291 2.02668 74.7176 4.12389 79.7808C6.22111 84.8439 9.29504 89.4444 13.1702 93.3195C17.0453 97.1946 21.6458 100.269 26.709 102.366C31.7721 104.463 37.1987 105.542 42.679 105.542C48.1593 105.542 53.5859 104.463 58.649 102.366C63.7121 100.269 68.3126 97.1946 72.1878 93.3195C76.0629 89.4444 79.1368 84.8439 81.2341 79.7808C83.3313 74.7176 84.4107 69.291 84.4107 63.8107C84.4107 58.3304 83.3313 52.9038 81.2341 47.8407C79.1368 42.7776 76.0629 38.1771 72.1878 34.3019C68.3126 30.4268 63.7121 27.3528 58.649 25.2556C53.5859 23.1584 48.1593 22.079 42.679 22.079C37.1987 22.079 31.7721 23.1584 26.709 25.2556C21.6458 27.3528 17.0453 30.4268 13.1702 34.3019C9.29504 38.1771 6.22111 42.7776 4.12389 47.8407C2.02668 52.9038 0.947265 58.3304 0.947266 63.8107Z" fill="#FFCA5F"/>
</svg>
